<svg width="64" height="64" viewBox="0 0 64 64" fill="none" xmlns="http://www.w3.org/2000/svg">
<rect x="7" y="7" width="50" height="50" rx="4" fill="#0000FF"/>
<path fill-rule="evenodd" clip-rule="evenodd" d="M20.0776 24.1591C20.6328 24.0547 21.2065 24 21.7934 24C22.3803 24 22.954 24.0547 23.5092 24.1591C23.6793 24.1911 23.79 24.3482 23.7563 24.51C23.7227 24.6717 23.5574 24.7769 23.3873 24.7449C22.872 24.648 22.3391 24.5971 21.7934 24.5971C21.2477 24.5971 20.7147 24.648 20.1995 24.7449C20.0293 24.7769 19.8641 24.6717 19.8305 24.51C19.7968 24.3482 19.9074 24.1911 20.0776 24.1591ZM17.3431 25.4903C17.4396 25.6273 17.401 25.8128 17.2568 25.9045C16.3663 26.4713 15.5995 27.2004 15.0032 28.047C14.9067 28.1841 14.7117 28.2208 14.5676 28.129C14.4234 28.0373 14.3848 27.8519 14.4813 27.7148C15.1232 26.8033 15.9486 26.0186 16.9074 25.4083C17.0515 25.3166 17.2466 25.3533 17.3431 25.4903ZM26.2437 25.4903C26.3402 25.3533 26.5352 25.3166 26.6794 25.4083C27.6381 26.0186 28.4636 26.8033 29.1055 27.7148C29.202 27.8519 29.1634 28.0373 29.0192 28.129C28.8751 28.2208 28.68 28.1841 28.5835 28.047C27.9873 27.2004 27.2205 26.4713 26.3299 25.9045C26.1858 25.8128 26.1472 25.6273 26.2437 25.4903ZM13.5364 30.4938C13.7065 30.5258 13.8172 30.6829 13.7835 30.8447C13.6816 31.3345 13.6281 31.8412 13.6281 32.36C13.6281 32.8788 13.6816 33.3855 13.7835 33.8753C13.8172 34.0371 13.7065 34.1942 13.5364 34.2262C13.3662 34.2582 13.201 34.153 13.1674 33.9912C13.0575 33.4634 13 32.9179 13 32.36C13 31.8021 13.0575 31.2566 13.1674 30.7288C13.201 30.567 13.3662 30.4618 13.5364 30.4938ZM30.0504 30.4938C30.2205 30.4618 30.3857 30.567 30.4194 30.7288C30.5292 31.2566 30.5868 31.8021 30.5868 32.36C30.5868 32.9179 30.5292 33.4634 30.4194 33.9912C30.3857 34.153 30.2205 34.2582 30.0504 34.2262C29.8802 34.1942 29.7696 34.0371 29.8032 33.8753C29.9052 33.3855 29.9587 32.8788 29.9587 32.36C29.9587 31.8412 29.9052 31.3345 29.8032 30.8447C29.7696 30.6829 29.8802 30.5258 30.0504 30.4938ZM14.5676 36.591C14.7117 36.4992 14.9067 36.5359 15.0032 36.673C15.5995 37.5196 16.3663 38.2487 17.2568 38.8155C17.401 38.9072 17.4396 39.0927 17.3431 39.2297C17.2466 39.3667 17.0515 39.4034 16.9074 39.3117C15.9486 38.7014 15.1232 37.9167 14.4813 37.0052C14.3848 36.8681 14.4234 36.6827 14.5676 36.591ZM29.0192 36.591C29.1633 36.6827 29.202 36.8681 29.1055 37.0052C28.4636 37.9167 27.6381 38.7014 26.6794 39.3117C26.5352 39.4034 26.3402 39.3667 26.2437 39.2297C26.1472 39.0927 26.1858 38.9072 26.3299 38.8155C27.2205 38.2487 27.9873 37.5196 28.5835 36.673C28.68 36.5359 28.8751 36.4992 29.0192 36.591ZM19.8305 40.21C19.8641 40.0483 20.0293 39.9431 20.1995 39.9751C20.7147 40.072 21.2477 40.1229 21.7934 40.1229C22.3391 40.1229 22.872 40.072 23.3873 39.9751C23.5574 39.9431 23.7227 40.0483 23.7563 40.21C23.79 40.3718 23.6793 40.5289 23.5092 40.5609C22.954 40.6653 22.3803 40.72 21.7934 40.72C21.2065 40.72 20.6328 40.6653 20.0776 40.5609C19.9074 40.5289 19.7968 40.3718 19.8305 40.21Z" fill="white"/>
<path fill-rule="evenodd" clip-rule="evenodd" d="M33.5704 40.1229C37.9877 40.1229 41.5786 36.6526 41.5786 32.36C41.5786 28.0674 37.9877 24.5972 33.5704 24.5972C29.153 24.5972 25.5621 28.0674 25.5621 32.36C25.5621 36.6526 29.153 40.1229 33.5704 40.1229ZM33.5704 40.4214C38.1666 40.4214 41.8927 36.8122 41.8927 32.36C41.8927 27.9078 38.1666 24.2986 33.5704 24.2986C28.9741 24.2986 25.248 27.9078 25.248 32.36C25.248 36.8122 28.9741 40.4214 33.5704 40.4214Z" fill="white"/>
<path d="M40.9813 29.0079C41.9519 27.4337 44.3455 27.4337 45.3161 29.0079L49.9062 36.4517C50.888 38.044 49.6802 40.0482 47.7387 40.0482H38.5587C36.6172 40.0482 35.4094 38.044 36.3913 36.4517L40.9813 29.0079Z" fill="white"/>
<path d="M34.9834 25.4929C34.9834 24.8333 35.5458 24.2986 36.2396 24.2986H49.7437C50.4375 24.2986 50.9999 24.8333 50.9999 25.4929V25.4929C50.9999 26.1525 50.4375 26.6872 49.7437 26.6872H36.2396C35.5458 26.6872 34.9834 26.1525 34.9834 25.4929V25.4929Z" fill="white"/>
</svg>
